<svg width="35" height="35" viewBox="0 0 35 35" fill="none" xmlns="http://www.w3.org/2000/svg">
<rect width="34.2745" height="34.2745" rx="11" fill="#FFA500"/>
<path d="M11.0939 10.8239H24.3529L22.549 17.1377H12.0653M23.451 20.7455H12.6274L10.8235 9.02002H8.11765M13.5294 24.3534C13.5294 24.8515 13.1256 25.2553 12.6274 25.2553C12.1293 25.2553 11.7255 24.8515 11.7255 24.3534C11.7255 23.8552 12.1293 23.4514 12.6274 23.4514C13.1256 23.4514 13.5294 23.8552 13.5294 24.3534ZM23.451 24.3534C23.451 24.8515 23.0472 25.2553 22.549 25.2553C22.0509 25.2553 21.6471 24.8515 21.6471 24.3534C21.6471 23.8552 22.0509 23.4514 22.549 23.4514C23.0472 23.4514 23.451 23.8552 23.451 24.3534Z" stroke="black" stroke-width="1.5" stroke-linecap="round" stroke-linejoin="round"/>
</svg>
