<svg width="1920" height="920" viewBox="0 0 1920 920" fill="none" xmlns="http://www.w3.org/2000/svg">
<g clip-path="url(#clip0_235_2)">
<rect width="1920" height="920" fill="white"/>
<circle cx="413" cy="419" r="286" fill="#FFECA9"/>
<circle cx="1287" cy="460" r="438" fill="#FFECA9"/>
<path d="M476 -0.5C476 61.9436 463.701 123.776 439.805 181.466C415.909 239.156 380.884 291.575 336.729 335.729C292.575 379.884 240.156 414.909 182.466 438.805C124.776 462.701 62.9435 475 0.499979 475L0.5 -0.5H476Z" fill="#FF9D9D"/>
<path d="M1624 0C1624 55.0239 1613.16 109.509 1592.11 160.344C1571.05 211.18 1540.19 257.37 1501.28 296.278C1462.37 335.185 1416.18 366.049 1365.34 387.106C1314.51 408.162 1260.02 419 1205 419C1149.98 419 1095.49 408.162 1044.66 387.106C993.82 366.049 947.63 335.185 908.722 296.278C869.814 257.37 838.951 211.18 817.894 160.344C796.838 109.509 786 55.0238 786 -3.66301e-05L1205 0H1624Z" fill="#FF9D9D"/>
<path d="M1205 920C1205 777.048 1148.21 639.952 1047.13 538.869C946.048 437.787 808.952 381 666 381C523.048 381 385.952 437.787 284.869 538.869C183.787 639.951 127 777.048 127 920L666 920H1205Z" fill="#FF9D9D"/>
<path d="M1919.5 513C1866.12 513 1813.26 523.514 1763.94 543.943C1714.62 564.372 1669.81 594.314 1632.06 632.061C1594.31 669.808 1564.37 714.62 1543.94 763.939C1523.51 813.258 1513 866.118 1513 919.5L1919.5 919.5V513Z" fill="#FF9D9D"/>
</g>
<defs>
<clipPath id="clip0_235_2">
<rect width="1920" height="920" fill="white"/>
</clipPath>
</defs>
</svg>
