<svg width="94" height="88" viewBox="0 0 94 88" fill="none" xmlns="http://www.w3.org/2000/svg">
<path d="M44 87.92C35.36 87.92 27.8 86.36 21.32 83.24C14.84 80.04 9.8 75.64 6.2 70.04C2.68 64.36 0.92 57.8 0.92 50.36C0.92 43 2.2 36.24 4.76 30.08C7.4 23.92 11.12 18.6 15.92 14.12C20.72 9.64 26.4 6.2 32.96 3.79999C39.6 1.32 46.92 0.0799975 54.92 0.0799975C63.72 0.0799975 71.28 1.48 77.6 4.27999C84 7 89.16 11.08 93.08 16.52L72.8 32.24C70.08 28.72 67.2 26.32 64.16 25.04C61.12 23.68 57.6 23 53.6 23C49.92 23 46.6 23.64 43.64 24.92C40.68 26.12 38.12 27.88 35.96 30.2C33.88 32.44 32.28 35.12 31.16 38.24C30.04 41.36 29.48 44.8 29.48 48.56C29.48 51.84 30.2 54.72 31.64 57.2C33.16 59.68 35.28 61.6 38 62.96C40.8 64.32 44.12 65 47.96 65C51.16 65 54.36 64.48 57.56 63.44C60.76 62.32 64.04 60.44 67.4 57.8L78.08 77.96C73.68 81.16 68.56 83.64 62.72 85.4C56.88 87.08 50.64 87.92 44 87.92ZM54.32 73.64L60.68 41.72H85.28L78.08 77.96L54.32 73.64Z" fill="#FFA500"/>
</svg>
