<svg width="194" height="193" viewBox="0 0 194 193" fill="none" xmlns="http://www.w3.org/2000/svg">
<rect x="0.941162" y="0.176758" width="192.118" height="192.118" rx="26" fill="#BE7DCE"/>
<path d="M93 141.92C84.36 141.92 76.8 140.36 70.32 137.24C63.84 134.04 58.8 129.64 55.2 124.04C51.68 118.36 49.92 111.8 49.92 104.36C49.92 97 51.2 90.24 53.76 84.08C56.4 77.92 60.12 72.6 64.92 68.12C69.72 63.64 75.4 60.2 81.96 57.8C88.6 55.32 95.92 54.08 103.92 54.08C112.72 54.08 120.28 55.48 126.6 58.28C133 61 138.16 65.08 142.08 70.52L121.8 86.24C119.08 82.72 116.2 80.32 113.16 79.04C110.12 77.68 106.6 77 102.6 77C98.92 77 95.6 77.64 92.64 78.92C89.68 80.12 87.12 81.88 84.96 84.2C82.88 86.44 81.28 89.12 80.16 92.24C79.04 95.36 78.48 98.8 78.48 102.56C78.48 105.84 79.2 108.72 80.64 111.2C82.16 113.68 84.28 115.6 87 116.96C89.8 118.32 93.12 119 96.96 119C100.16 119 103.36 118.48 106.56 117.44C109.76 116.32 113.04 114.44 116.4 111.8L127.08 131.96C122.68 135.16 117.56 137.64 111.72 139.4C105.88 141.08 99.64 141.92 93 141.92ZM103.32 127.64L109.68 95.72H134.28L127.08 131.96L103.32 127.64Z" fill="#FFA500"/>
</svg>
