<svg width="124" height="43" viewBox="0 0 124 43" fill="none" xmlns="http://www.w3.org/2000/svg">
<rect width="43" height="43" rx="11" fill="white"/>
<path d="M55.4 20.256C54.248 20.256 53.24 20.048 52.376 19.632C51.512 19.2053 50.84 18.6187 50.36 17.872C49.8907 17.1147 49.656 16.24 49.656 15.248C49.656 14.2667 49.8267 13.3653 50.168 12.544C50.52 11.7227 51.016 11.0133 51.656 10.416C52.296 9.81867 53.0533 9.36 53.928 9.04C54.8133 8.70933 55.7893 8.544 56.856 8.544C58.0293 8.544 59.0373 8.73067 59.88 9.104C60.7333 9.46667 61.4213 10.0107 61.944 10.736L59.24 12.832C58.8773 12.3627 58.4933 12.0427 58.088 11.872C57.6827 11.6907 57.2133 11.6 56.68 11.6C56.1893 11.6 55.7467 11.6853 55.352 11.856C54.9573 12.016 54.616 12.2507 54.328 12.56C54.0507 12.8587 53.8373 13.216 53.688 13.632C53.5387 14.048 53.464 14.5067 53.464 15.008C53.464 15.4453 53.56 15.8293 53.752 16.16C53.9547 16.4907 54.2373 16.7467 54.6 16.928C54.9733 17.1093 55.416 17.2 55.928 17.2C56.3547 17.2 56.7813 17.1307 57.208 16.992C57.6347 16.8427 58.072 16.592 58.52 16.24L59.944 18.928C59.3573 19.3547 58.6747 19.6853 57.896 19.92C57.1173 20.144 56.2853 20.256 55.4 20.256ZM56.776 18.352L57.624 14.096H60.904L59.944 18.928L56.776 18.352ZM67.6329 20.256C66.4702 20.256 65.4622 20.0427 64.6089 19.616C63.7662 19.1893 63.1102 18.6027 62.6409 17.856C62.1822 17.0987 61.9529 16.2293 61.9529 15.248C61.9529 14.256 62.1235 13.3547 62.4649 12.544C62.8169 11.7227 63.3075 11.0133 63.9369 10.416C64.5662 9.81867 65.3129 9.36 66.1769 9.04C67.0409 8.70933 67.9849 8.544 69.0089 8.544C70.1715 8.544 71.1742 8.75733 72.0169 9.184C72.8702 9.61067 73.5262 10.2027 73.9849 10.96C74.4542 11.7067 74.6889 12.5707 74.6889 13.552C74.6889 14.544 74.5129 15.4507 74.1609 16.272C73.8195 17.0827 73.3342 17.7867 72.7049 18.384C72.0755 18.9813 71.3289 19.4453 70.4649 19.776C69.6009 20.096 68.6569 20.256 67.6329 20.256ZM67.9529 17.2C68.4222 17.2 68.8329 17.1093 69.1849 16.928C69.5475 16.7467 69.8569 16.496 70.1129 16.176C70.3689 15.856 70.5609 15.4933 70.6889 15.088C70.8169 14.672 70.8809 14.2347 70.8809 13.776C70.8809 13.3387 70.7902 12.96 70.6089 12.64C70.4382 12.3093 70.1875 12.0533 69.8569 11.872C69.5369 11.6907 69.1475 11.6 68.6889 11.6C68.2302 11.6 67.8195 11.6907 67.4569 11.872C67.0942 12.0533 66.7849 12.304 66.5289 12.624C66.2729 12.944 66.0809 13.312 65.9529 13.728C65.8249 14.1333 65.7609 14.5653 65.7609 15.024C65.7609 15.4507 65.8462 15.8293 66.0169 16.16C66.1982 16.4907 66.4489 16.7467 66.7689 16.928C67.0995 17.1093 67.4942 17.2 67.9529 17.2ZM49.032 36L51.272 24.8H54.344L57.336 32.112H55.704L61.464 24.8H64.68L62.472 36H59.032L60.2 29.984L60.744 29.952L56.872 34.992H55.208L53.032 29.936L53.672 29.984L52.472 36H49.032ZM63.0816 36L70.2176 24.8H73.9296L76.5856 36H72.8256L71.0176 26.544H72.4896L67.0656 36H63.0816ZM66.3776 34.048L67.8816 31.328H73.0336L73.4496 34.048H66.3776ZM77.1883 36L79.4283 24.8H84.4523C85.9349 24.8 87.0816 25.1253 87.8923 25.776C88.7029 26.416 89.1083 27.3173 89.1083 28.48C89.1083 29.4187 88.8736 30.24 88.4043 30.944C87.9456 31.648 87.2896 32.1973 86.4363 32.592C85.5936 32.9867 84.5963 33.184 83.4443 33.184H79.8283L81.8443 31.6L80.9643 36H77.1883ZM84.0363 36L81.7323 31.92H85.6203L87.9563 36H84.0363ZM81.7483 32.048L80.4203 30.336H83.6363C84.1589 30.336 84.5643 30.208 84.8523 29.952C85.1403 29.6853 85.2843 29.3173 85.2843 28.848C85.2843 28.4427 85.1563 28.1547 84.9003 27.984C84.6549 27.8027 84.3136 27.712 83.8763 27.712H80.9483L82.9643 25.952L81.7483 32.048ZM92.9661 33.696L93.5261 29.456L98.5181 24.8H102.854L97.1101 30.016L94.5501 32.224L92.9661 33.696ZM89.1101 36L91.3501 24.8H95.0621L92.8221 36H89.1101ZM96.6781 36L93.9741 31.648L96.7741 29.12L100.886 36H96.6781ZM106.209 28.96H111.201L110.657 31.68H105.665L106.209 28.96ZM105.617 33.152H111.233L110.657 36H101.345L103.585 24.8H112.689L112.113 27.648H106.721L105.617 33.152ZM114.542 36L116.19 27.728H112.91L113.502 24.8H123.838L123.246 27.728H119.966L118.318 36H114.542Z" fill="white"/>
<path d="M21 34.56C18.48 34.56 16.275 34.105 14.385 33.195C12.495 32.2617 11.025 30.9783 9.975 29.345C8.94833 27.6883 8.435 25.775 8.435 23.605C8.435 21.4583 8.80833 19.4867 9.555 17.69C10.325 15.8933 11.41 14.3417 12.81 13.035C14.21 11.7283 15.8667 10.725 17.78 10.025C19.7167 9.30167 21.8517 8.94 24.185 8.94C26.7517 8.94 28.9567 9.34833 30.8 10.165C32.6667 10.9583 34.1717 12.1483 35.315 13.735L29.4 18.32C28.6067 17.2933 27.7667 16.5933 26.88 16.22C25.9933 15.8233 24.9667 15.625 23.8 15.625C22.7267 15.625 21.7583 15.8117 20.895 16.185C20.0317 16.535 19.285 17.0483 18.655 17.725C18.0483 18.3783 17.5817 19.16 17.255 20.07C16.9283 20.98 16.765 21.9833 16.765 23.08C16.765 24.0367 16.975 24.8767 17.395 25.6C17.8383 26.3233 18.4567 26.8833 19.25 27.28C20.0667 27.6767 21.035 27.875 22.155 27.875C23.0883 27.875 24.0217 27.7233 24.955 27.42C25.8883 27.0933 26.845 26.545 27.825 25.775L30.94 31.655C29.6567 32.5883 28.1633 33.3117 26.46 33.825C24.7567 34.315 22.9367 34.56 21 34.56ZM24.01 30.395L25.865 21.085H33.04L30.94 31.655L24.01 30.395Z" fill="#FFA500"/>
</svg>
